<svg width="120" height="120" viewBox="0 0 120 120" fill="none" xmlns="http://www.w3.org/2000/svg">
<path d="M27.9999 73C29.5999 73.8 32.4999 73.3333 33.9999 73C34.9999 72.7778 32.4858 78.5319 31.2858 78.9319C29.7858 79.4319 23.7858 78.9319 21.7858 78.4319C19.7858 77.9319 17.5001 72 25.5 61.5C33.2434 51.3368 50.7858 43.9319 60.2858 43.9319C68.7858 43.9319 72.096 44.5961 74 46.5C75 47.5 77.2795 50.8705 77.5 53.9319C77.7205 56.9933 76.5358 58.9319 75.7858 60.4319C73.1025 65.7984 60.0107 77.3194 56.7858 78.9319C53.7858 80.4319 49.2858 83.4319 45.7858 82.4319C43.8628 81.8825 43.2858 105.432 41.7858 105.432C40.2858 105.432 36.9999 104 35.4999 102.5C33.9999 101 39.4999 80.4319 39.9999 78.4319C40.4999 76.4319 45.9999 60 46.4999 58C46.9999 56 51.8247 53.5397 53.7858 53.9319C56.2858 54.4319 56.2858 56.9319 53.7858 60.4319C52.1418 62.7335 49.5 73 51 73C52.5 73 63.9999 67.4319 66.9999 58.4319C68.3333 54.4319 68.1622 50.5 64.9999 50.5C59.5 50.5 58.4297 49.2982 51 52C39.9999 56 37.4999 59.9319 28.9999 68C27.8602 69.0818 26.3999 72.2 27.9999 73Z" fill="black"/>
<path d="M62.7858 27.4319C64.3858 29.8319 65.9999 29 66.2858 29.9319C66.5717 30.8638 60.4999 39 62.7858 39.5C69.9999 40 76.4999 44 78.7858 48.4319C79.5946 50 86.5716 44.9319 87.2858 44.9319C87.9999 44.9319 94.1304 50.8064 98.2858 48.4319C101.786 46.4319 103.786 39.9319 99.7858 37.4319C99.1861 37.0571 98.2858 36.4319 94.7858 35.9319C95.7858 34.4319 94.4736 25.1977 90.7858 22.4319C86.7858 19.4319 81.2858 18.9319 75.7858 19.4319C73.7859 13.4319 66.2858 14.9319 63.7858 15.9319C61.2857 16.9319 60.7858 24.4319 62.7858 27.4319Z" fill="black"/>
</svg>
