<svg width="24" height="24" viewBox="0 0 24 24" fill="none" xmlns="http://www.w3.org/2000/svg">
<path d="M19.5509 7.44135C19.2666 7.15866 18.8819 7 18.481 7C18.0799 7 17.6952 7.15866 17.4109 7.44135L11.962 12.8143L6.58905 7.44135C6.30467 7.15866 5.91998 7 5.519 7C5.11802 7 4.73334 7.15866 4.44896 7.44135C4.30671 7.58245 4.19379 7.75031 4.11673 7.93528C4.03969 8.12023 4 8.31862 4 8.51898C4 8.71935 4.03969 8.91774 4.11673 9.10269C4.19379 9.28765 4.30671 9.45552 4.44896 9.59662L10.8844 16.0321C11.0255 16.1742 11.1934 16.2871 11.3783 16.3642C11.5633 16.4413 11.7617 16.481 11.962 16.481C12.1624 16.481 12.3608 16.4413 12.5457 16.3642C12.7307 16.2871 12.8986 16.1742 13.0397 16.0321L19.5509 9.59662C19.6932 9.45552 19.8061 9.28765 19.8832 9.10269C19.9603 8.91774 20 8.71935 20 8.51898C20 8.31862 19.9603 8.12023 19.8832 7.93528C19.8061 7.75031 19.6932 7.58245 19.5509 7.44135Z" fill="#261D1A"/>
</svg>
