<svg width="24" height="24" viewBox="0 0 24 24" fill="none" xmlns="http://www.w3.org/2000/svg">
<path d="M17.2606 5.46C17.0243 5.46 16.7934 5.53038 16.5969 5.66224C16.4005 5.79409 16.2474 5.98151 16.157 6.20078C16.0666 6.42005 16.0429 6.66133 16.089 6.89411C16.1351 7.12689 16.2489 7.34071 16.4159 7.50853C16.583 7.67635 16.7958 7.79064 17.0275 7.83694C17.2592 7.88324 17.4994 7.85948 17.7177 7.76866C17.9359 7.67783 18.1225 7.52402 18.2537 7.32668C18.385 7.12935 18.4551 6.89734 18.4551 6.66C18.4551 6.34174 18.3292 6.03652 18.1052 5.81147C17.8812 5.58643 17.5774 5.46 17.2606 5.46V5.46ZM21.8395 7.88C21.8201 7.0503 21.6654 6.2294 21.3816 5.45C21.1285 4.78313 20.7346 4.17928 20.2269 3.68C19.734 3.16743 19.1315 2.77418 18.465 2.53C17.6912 2.23616 16.8732 2.07721 16.0461 2.06C14.991 2 14.6526 2 11.945 2C9.23749 2 8.89905 2 7.8439 2.06C7.01686 2.07721 6.19882 2.23616 5.42504 2.53C4.75978 2.77665 4.1578 3.16956 3.66315 3.68C3.15292 4.17518 2.76147 4.78044 2.51842 5.45C2.22592 6.22734 2.0677 7.04915 2.05057 7.88C1.99084 8.94 1.99084 9.28 1.99084 12C1.99084 14.72 1.99084 15.06 2.05057 16.12C2.0677 16.9508 2.22592 17.7727 2.51842 18.55C2.76147 19.2196 3.15292 19.8248 3.66315 20.32C4.1578 20.8304 4.75978 21.2234 5.42504 21.47C6.19882 21.7638 7.01686 21.9228 7.8439 21.94C8.89905 22 9.23749 22 11.945 22C14.6526 22 14.991 22 16.0461 21.94C16.8732 21.9228 17.6912 21.7638 18.465 21.47C19.1315 21.2258 19.734 20.8326 20.2269 20.32C20.7368 19.8226 21.1311 19.2182 21.3816 18.55C21.6654 17.7706 21.8201 16.9497 21.8395 16.12C21.8395 15.06 21.8992 14.72 21.8992 12C21.8992 9.28 21.8992 8.94 21.8395 7.88V7.88ZM20.0477 16C20.0405 16.6348 19.926 17.2637 19.7093 17.86C19.5503 18.2952 19.2951 18.6884 18.9627 19.01C18.6399 19.3405 18.2492 19.5964 17.818 19.76C17.2244 19.9778 16.5984 20.0927 15.9665 20.1C14.9711 20.15 14.6028 20.16 11.9848 20.16C9.36689 20.16 8.99859 20.16 8.00317 20.1C7.34708 20.1123 6.69379 20.0109 6.07206 19.8C5.65974 19.6281 5.28703 19.3728 4.9771 19.05C4.64671 18.7287 4.39462 18.3352 4.24049 17.9C3.99746 17.2952 3.86267 16.6519 3.84232 16C3.84232 15 3.7826 14.63 3.7826 12C3.7826 9.37 3.7826 9 3.84232 8C3.84678 7.35106 3.96471 6.70795 4.19072 6.1C4.36596 5.67791 4.63494 5.30166 4.9771 5C5.27952 4.65617 5.65327 4.3831 6.07206 4.2C6.67882 3.98004 7.31832 3.86508 7.96335 3.86C8.95877 3.86 9.32707 3.8 11.945 3.8C14.563 3.8 14.9313 3.8 15.9267 3.86C16.5586 3.86728 17.1846 3.98225 17.7782 4.2C18.2305 4.36865 18.6365 4.64285 18.9627 5C19.2889 5.30718 19.5438 5.68273 19.7093 6.1C19.9305 6.70893 20.045 7.35178 20.0477 8C20.0975 9 20.1075 9.37 20.1075 12C20.1075 14.63 20.0975 15 20.0477 16ZM11.945 6.87C10.9355 6.87198 9.94917 7.17453 9.11073 7.73942C8.27228 8.30431 7.61931 9.1062 7.23434 10.0438C6.84937 10.9813 6.74966 12.0125 6.94782 13.0069C7.14598 14.0014 7.63311 14.9145 8.34766 15.631C9.06221 16.3474 9.97212 16.835 10.9624 17.0321C11.9527 17.2293 12.9789 17.1271 13.9114 16.7385C14.844 16.35 15.6409 15.6924 16.2016 14.849C16.7622 14.0056 17.0615 13.0142 17.0615 12C17.0628 11.3251 16.9313 10.6566 16.6745 10.033C16.4177 9.40931 16.0407 8.84281 15.5652 8.36605C15.0897 7.88929 14.5251 7.51168 13.9038 7.25493C13.2825 6.99818 12.6168 6.86736 11.945 6.87V6.87ZM11.945 15.33C11.2894 15.33 10.6486 15.1347 10.1035 14.7688C9.55835 14.4029 9.13349 13.8828 8.8826 13.2743C8.63172 12.6659 8.56607 11.9963 8.69397 11.3503C8.82187 10.7044 9.13757 10.111 9.60115 9.64533C10.0647 9.17963 10.6554 8.86247 11.2984 8.73398C11.9413 8.6055 12.6078 8.67144 13.2135 8.92348C13.8192 9.17552 14.3369 9.60234 14.7011 10.15C15.0654 10.6976 15.2598 11.3414 15.2598 12C15.2598 12.4373 15.174 12.8703 15.0074 13.2743C14.8409 13.6784 14.5967 14.0454 14.2889 14.3547C13.9811 14.6639 13.6157 14.9092 13.2135 15.0765C12.8114 15.2439 12.3803 15.33 11.945 15.33V15.33Z" fill="#40372B"/>
</svg>
