<svg width="24" height="24" viewBox="0 0 24 24" fill="none" xmlns="http://www.w3.org/2000/svg">
<path d="M19.8664 4.02657L19.8662 4.02671L19.8762 4.03648C20.3315 4.4843 20.6852 5.0259 20.9128 5.6242C21.1773 6.3515 21.3214 7.11746 21.3395 7.89166L21.3397 7.8999L21.3401 7.90813C21.3989 8.95151 21.3991 9.27697 21.3991 12C21.3991 13.3558 21.3842 14.1163 21.3694 14.6691C21.366 14.7954 21.3626 14.9117 21.3594 15.0224C21.3485 15.3931 21.3394 15.7017 21.3394 16.114C21.3207 16.8866 21.1765 17.6509 20.9125 18.3767C20.6877 18.9753 20.3343 19.5166 19.8776 19.9621L19.8719 19.9677L19.8664 19.9734C19.426 20.4314 18.8879 20.7825 18.2929 21.0005L18.2929 21.0005L18.2874 21.0026C17.567 21.2761 16.8055 21.4241 16.0356 21.4401L16.0266 21.4403L16.0176 21.4408C14.9793 21.4999 14.6555 21.5 11.9449 21.5C9.2343 21.5 8.91054 21.4999 7.87217 21.4408L7.86318 21.4403L7.85418 21.4401C7.08432 21.4241 6.3228 21.2761 5.60242 21.0026L5.59873 21.0012C5.0036 20.7805 4.46489 20.429 4.02209 19.972L4.01675 19.9665L4.01125 19.9612C3.55543 19.5188 3.20557 18.9779 2.98829 18.3794L2.98832 18.3794L2.98626 18.3739C2.71374 17.6497 2.5663 16.8839 2.55034 16.1097L2.55016 16.1008L2.54966 16.0919C2.49087 15.0485 2.49072 14.723 2.49072 12C2.49072 9.27697 2.49087 8.95151 2.54966 7.90813L2.55016 7.89922L2.55034 7.89031C2.5663 7.1161 2.71374 6.35035 2.98626 5.62608L2.98629 5.6261L2.98829 5.62061C3.20557 5.02205 3.55543 4.48117 4.01125 4.0388L4.01675 4.03346L4.02209 4.02796C4.46489 3.57103 5.0036 3.21946 5.59873 2.99882L5.59874 2.99883L5.60242 2.99743C6.3228 2.72387 7.08432 2.57591 7.85418 2.55989L7.86318 2.5597L7.87217 2.55919C8.91054 2.50015 9.2343 2.5 11.9449 2.5C14.6555 2.5 14.9793 2.50015 16.0176 2.55919L16.0266 2.5597L16.0356 2.55989C16.8055 2.57591 17.567 2.72387 18.2874 2.99743L18.2874 2.99746L18.2929 2.99948C18.8879 3.21748 19.426 3.56864 19.8664 4.02657ZM6.07194 4.2C6.67869 3.98004 7.3182 3.86508 7.96323 3.86C8.34291 3.86 8.63135 3.85127 8.9882 3.84047C9.56691 3.82296 10.3255 3.8 11.9449 3.8C14.5629 3.8 14.9312 3.8 15.9266 3.86C16.5584 3.86728 17.1845 3.98225 17.7781 4.2C18.2304 4.36865 18.6364 4.64285 18.9626 5L6.07194 4.2ZM20.1739 5.91568C19.9838 5.43627 19.6922 5.00403 19.3191 4.64894C18.9416 4.24009 18.4737 3.92574 17.9527 3.7315L17.9527 3.7315L17.9503 3.73059C17.3073 3.4947 16.6292 3.36948 15.9447 3.36019C14.9431 3.3 14.551 3.3 11.9673 3.3H11.9449C10.6316 3.3 9.8804 3.31506 9.33183 3.33019C9.1998 3.33383 9.08052 3.33744 8.96874 3.34082C8.61398 3.35155 8.33474 3.36 7.96323 3.35998L7.95929 3.36002C7.25744 3.36554 6.56165 3.49063 5.90153 3.72993L5.88639 3.73542L5.87164 3.74187C5.39536 3.95011 4.96946 4.25855 4.62257 4.64608C4.2345 4.99454 3.92911 5.42584 3.72881 5.90828L3.72521 5.91696L3.72193 5.92577C3.47715 6.58421 3.34871 7.28044 3.34232 7.98311C3.28247 8.98842 3.28247 9.38266 3.28247 11.9778V12C3.28247 13.3193 3.29746 14.0739 3.31252 14.6249C3.31615 14.7575 3.31974 14.8773 3.3231 14.9896C3.33379 15.346 3.3422 15.6267 3.3422 16V16.0078L3.34244 16.0156C3.36451 16.7227 3.51011 17.4204 3.7726 18.0769C3.95169 18.5777 4.24222 19.0311 4.62226 19.4025C4.9785 19.7718 5.40632 20.0642 5.87951 20.2615L5.89523 20.268L5.91135 20.2735C6.58141 20.5008 7.28521 20.6113 7.99232 20.6003C8.98844 20.66 9.38498 20.66 11.9623 20.66H11.9847C14.5957 20.66 14.9804 20.6501 15.982 20.5998C16.6674 20.5908 17.3463 20.4656 17.9901 20.2294L17.9901 20.2294L17.9952 20.2275C18.4924 20.0389 18.9427 19.7444 19.3153 19.3644C19.6997 18.9911 19.9948 18.5354 20.1788 18.0315L20.1791 18.0308C20.414 17.3846 20.5385 16.7032 20.5475 16.0155C20.5975 15.0093 20.6073 14.6231 20.6073 12C20.6073 9.37841 20.5975 8.99113 20.5475 7.9863C20.5433 7.28452 20.4187 6.58866 20.1791 5.92926L20.1766 5.92243L20.1739 5.91568ZM16.5613 11.999V12C16.5613 12.9159 16.2911 13.811 15.785 14.5722C15.279 15.3335 14.5599 15.9266 13.719 16.277C12.8781 16.6274 11.9528 16.7195 11.0599 16.5418C10.167 16.364 9.34629 15.9243 8.70156 15.2779C8.0568 14.6314 7.61699 13.8072 7.43806 12.9092C7.25912 12.0112 7.34918 11.0801 7.69675 10.2337C8.04431 9.38723 8.63366 8.66365 9.38998 8.15409C10.1463 7.64454 11.0357 7.37178 11.9459 7.37L11.9449 6.87L11.9469 7.37C12.5524 7.36762 13.1526 7.48554 13.7127 7.71703C14.2729 7.94852 14.7821 8.28904 15.2111 8.71914C15.64 9.14923 15.9803 9.66041 16.212 10.2233C16.4438 10.7862 16.5625 11.3897 16.5613 11.999ZM16.8755 6.07738C16.9896 6.00076 17.1236 5.96 17.2604 5.96C17.4439 5.96 17.6203 6.03319 17.7507 6.16421C17.8812 6.29531 17.9549 6.47361 17.9549 6.66C17.9549 6.79895 17.9139 6.9346 17.8373 7.04978C17.7607 7.16493 17.6521 7.25433 17.5255 7.30703C17.3988 7.35972 17.2596 7.37347 17.1254 7.34664C16.9911 7.3198 16.8674 7.25351 16.7702 7.15579C16.6729 7.05804 16.6063 6.93322 16.5794 6.79699C16.5524 6.66075 16.5663 6.51956 16.6191 6.39137C16.672 6.2632 16.7613 6.15402 16.8755 6.07738ZM9.82466 15.1839C10.4521 15.6051 11.1899 15.83 11.9449 15.83C12.4462 15.83 12.9425 15.7308 13.4055 15.5381C13.8685 15.3455 14.289 15.0632 14.6431 14.7074C14.9973 14.3517 15.278 13.9294 15.4696 13.4649C15.6611 13.0004 15.7596 12.5026 15.7596 12C15.7596 11.243 15.5362 10.5028 15.1173 9.87305C14.6984 9.24324 14.1028 8.75202 13.4055 8.46185C12.7082 8.17168 11.9407 8.09572 11.2003 8.24368C10.4598 8.39164 9.78001 8.75679 9.24666 9.29259C8.71333 9.82838 8.35039 10.5107 8.20337 11.2532C8.05636 11.9957 8.13179 12.7654 8.42023 13.4649C8.70868 14.1645 9.1973 14.7628 9.82466 15.1839Z" stroke="#FFF1E2"/>
</svg>
