<svg width="24" height="24" viewBox="0 0 24 24" fill="none" xmlns="http://www.w3.org/2000/svg">
<g clip-path="url(#clip0_2328_80313)">
<mask id="path-1-inside-1_2328_80313" fill="white">
<path d="M17.4182 14.3811C17.1217 14.2323 15.6598 13.5121 15.3874 13.4137C15.1149 13.3141 14.9169 13.2649 14.7188 13.5625C14.5208 13.859 13.9507 14.5299 13.7766 14.728C13.6038 14.926 13.4297 14.95 13.1333 14.8012C12.2572 14.4524 11.4485 13.9536 10.7436 13.3273C10.0934 12.7263 9.536 12.0322 9.08959 11.2676C8.91675 10.97 9.07159 10.8091 9.22042 10.6615C9.35365 10.5283 9.51808 10.3146 9.66572 10.1406C9.78799 9.99033 9.88822 9.82342 9.96338 9.64487C10.0029 9.56283 10.0213 9.47219 10.0169 9.38122C10.0125 9.29024 9.98546 9.20181 9.93818 9.12396C9.86376 8.97513 9.26963 7.51201 9.02238 6.91668C8.78112 6.33815 8.53627 6.41617 8.35263 6.40656C8.17979 6.39816 7.98175 6.39576 7.7837 6.39576C7.63305 6.39996 7.4849 6.4353 7.34857 6.49954C7.21224 6.56378 7.09068 6.65554 6.99153 6.76904C6.65549 7.08728 6.38941 7.47201 6.21024 7.89874C6.03108 8.32547 5.94276 8.78484 5.9509 9.24759C6.04728 10.3689 6.46903 11.4377 7.16437 12.3227C8.43895 14.2335 10.1886 15.7801 12.2415 16.8104C12.7952 17.0483 13.3609 17.2575 13.9363 17.437C14.5428 17.6211 15.184 17.661 15.8087 17.5534C16.2224 17.4696 16.6142 17.3009 16.9595 17.0579C17.3047 16.815 17.5958 16.5031 17.8143 16.1419C18.0093 15.6977 18.0694 15.206 17.9871 14.728C17.9139 14.6032 17.7159 14.5299 17.4182 14.3811V14.3811ZM20.4093 3.48393C18.3688 1.4439 15.6564 0.214901 12.7773 0.0257339C9.89811 -0.163433 7.04831 0.700124 4.75842 2.45563C2.46854 4.21114 0.894626 6.73897 0.329705 9.5685C-0.235216 12.398 0.247353 15.3364 1.68757 17.8367L0 24L6.30618 22.3472C8.05035 23.297 10.0046 23.7946 11.9906 23.7948H11.9954C14.3481 23.7936 16.6475 23.0951 18.6034 21.7876C20.5592 20.4801 22.0836 18.6222 22.984 16.4487C23.8844 14.2751 24.1203 11.8835 23.6621 9.57596C23.2038 7.2684 22.0719 5.14843 20.4093 3.48391V3.48393ZM17.249 20.2744C15.6744 21.2613 13.8538 21.785 11.9954 21.7855H11.9906C10.2201 21.7854 8.48224 21.3091 6.95912 20.4064L6.59784 20.1928L2.85543 21.1746L3.85404 17.5258L3.61999 17.1513C2.58122 15.4948 2.05699 13.5674 2.11359 11.6129C2.17019 9.6584 2.80507 7.76458 3.93797 6.17092C5.07086 4.57725 6.65088 3.35531 8.47823 2.6596C10.3056 1.9639 12.2982 1.82567 14.2041 2.26241C16.11 2.69915 17.8436 3.69124 19.1857 5.11322C20.5278 6.5352 21.4181 8.32322 21.744 10.2512C22.0699 12.1791 21.8168 14.1604 21.0167 15.9445C20.2166 17.7286 18.9054 19.2354 17.249 20.2744"/>
</mask>
<path d="M15.3874 13.4137L15.044 14.3529L15.0476 14.3542L15.3874 13.4137ZM14.7188 13.5625L15.5504 14.118L15.5514 14.1165L14.7188 13.5625ZM13.7766 14.728L13.0254 14.0679L13.0232 14.0705L13.7766 14.728ZM13.1333 14.8012L13.5819 13.9075L13.5433 13.8881L13.5032 13.8721L13.1333 14.8012ZM10.7436 13.3273L10.0648 14.0616L10.072 14.0683L10.0793 14.0748L10.7436 13.3273ZM9.08959 11.2676L8.2248 11.7698L8.22601 11.7718L9.08959 11.2676ZM9.22042 10.6615L9.92466 11.3715L9.92753 11.3686L9.22042 10.6615ZM9.66572 10.1406L10.4283 10.7875L10.4349 10.7797L10.4413 10.7718L9.66572 10.1406ZM9.96338 9.64487L9.06257 9.21065L9.05156 9.23351L9.04171 9.25689L9.96338 9.64487ZM9.93818 9.12396L9.04375 9.57117L9.06214 9.60797L9.0835 9.64312L9.93818 9.12396ZM9.02238 6.91668L9.94589 6.53312L9.94534 6.53179L9.02238 6.91668ZM8.35263 6.40656L8.40485 5.40792L8.40118 5.40774L8.35263 6.40656ZM7.7837 6.39576V5.39576H7.76977L7.75583 5.39615L7.7837 6.39576ZM6.99153 6.76904L7.67913 7.49513L7.71352 7.46257L7.74468 7.4269L6.99153 6.76904ZM5.9509 9.24759L4.95106 9.26519L4.95166 9.29927L4.95458 9.33322L5.9509 9.24759ZM7.16437 12.3227L7.99629 11.7678L7.97471 11.7354L7.95069 11.7048L7.16437 12.3227ZM12.2415 16.8104L11.7929 17.7042L11.8195 17.7175L11.8468 17.7292L12.2415 16.8104ZM13.9363 17.437L13.6384 18.3916L13.6457 18.3939L13.9363 17.437ZM15.8087 17.5534L15.9784 18.5389L15.9928 18.5364L16.0072 18.5335L15.8087 17.5534ZM17.8143 16.1419L18.6699 16.6596L18.7037 16.6037L18.73 16.5438L17.8143 16.1419ZM17.9871 14.728L18.9727 14.5584L18.9418 14.3791L18.8497 14.2221L17.9871 14.728ZM17.4182 14.3811L16.9696 15.2748L16.971 15.2755L17.4182 14.3811ZM20.4093 3.48393L19.7022 4.19112L21.4093 5.89773V3.48393H20.4093ZM1.68757 17.8367L2.65207 18.1008L2.76215 17.6987L2.55409 17.3375L1.68757 17.8367ZM0 24L-0.964499 23.7359L-1.4219 25.4064L0.253524 24.9673L0 24ZM6.30618 22.3472L6.78439 21.469L6.43619 21.2794L6.05266 21.3799L6.30618 22.3472ZM11.9906 23.7948L11.9906 24.7948H11.9906V23.7948ZM11.9954 23.7948L11.9954 24.7948L11.9959 24.7948L11.9954 23.7948ZM20.4093 3.48391L21.1168 2.77721L19.4093 1.06773V3.48391H20.4093ZM11.9954 21.7855L11.9954 22.7855L11.9957 22.7855L11.9954 21.7855ZM11.9906 21.7855L11.9906 22.7855H11.9906V21.7855ZM6.95912 20.4064L7.46896 19.5461L7.46814 19.5457L6.95912 20.4064ZM6.59784 20.1928L7.10686 19.332L6.7477 19.1196L6.34408 19.2255L6.59784 20.1928ZM2.85543 21.1746L1.8909 20.9106L1.43362 22.5814L3.10919 22.1419L2.85543 21.1746ZM3.85404 17.5258L4.81857 17.7898L4.93421 17.3673L4.70204 16.9958L3.85404 17.5258ZM3.61999 17.1513L4.46799 16.6213L4.4672 16.62L3.61999 17.1513ZM17.8669 13.4874C17.7133 13.4103 17.2691 13.1908 16.8288 12.9781C16.4211 12.7811 15.9256 12.5449 15.7271 12.4732L15.0476 14.3542C15.0466 14.3538 15.0719 14.3636 15.137 14.3923C15.1953 14.418 15.2695 14.4518 15.3564 14.4922C15.5299 14.5729 15.7424 14.6744 15.9587 14.7789C16.3917 14.9881 16.8266 15.2031 16.9696 15.2748L17.8669 13.4874ZM15.7308 12.4745C15.624 12.4355 15.2893 12.3022 14.911 12.3457C14.4226 12.4018 14.0922 12.699 13.8863 13.0086L15.5514 14.1165C15.5514 14.1165 15.5509 14.1171 15.55 14.1184C15.5491 14.1196 15.5478 14.1215 15.5459 14.124C15.5421 14.1288 15.5361 14.1361 15.5277 14.1453C15.5108 14.1636 15.4835 14.1897 15.4443 14.2173C15.3571 14.2787 15.25 14.3199 15.1394 14.3326C15.0415 14.3438 14.9759 14.3286 14.9689 14.327C14.9653 14.3261 14.98 14.3295 15.044 14.3529L15.7308 12.4745ZM13.8873 13.0071C13.8202 13.1075 13.6594 13.3125 13.4668 13.5465C13.2838 13.7686 13.1047 13.9777 13.0255 14.0679L14.5278 15.3881C14.6932 15.1998 15.3091 14.4791 15.5504 14.118L13.8873 13.0071ZM13.0232 14.0705C13.0261 14.0671 13.0579 14.0308 13.1218 13.9916C13.1921 13.9485 13.282 13.9137 13.3832 13.9017C13.5692 13.8796 13.6644 13.9489 13.5819 13.9075L12.6846 15.6949C12.8986 15.8024 13.2291 15.9341 13.6194 15.8877C14.0516 15.8363 14.3465 15.5958 14.53 15.3855L13.0232 14.0705ZM13.5032 13.8721C12.7349 13.5663 12.0259 13.129 11.4078 12.5797L10.0793 14.0748C10.8711 14.7783 11.7794 15.3385 12.7634 15.7303L13.5032 13.8721ZM11.4223 12.5929C10.8448 12.0591 10.3497 11.4426 9.95317 10.7634L8.22601 11.7718C8.72231 12.6219 9.34197 13.3935 10.0648 14.0616L11.4223 12.5929ZM9.95438 10.7655C9.96275 10.7799 9.99554 10.8415 10.0083 10.9431C10.0221 11.0523 10.007 11.162 9.97149 11.2573C9.93946 11.3433 9.89958 11.3941 9.89044 11.4054C9.88419 11.4132 9.88469 11.4111 9.92466 11.3715L8.51618 9.95153C8.46768 9.99964 8.22204 10.2243 8.09727 10.5593C7.9372 10.989 8.01953 11.4162 8.2248 11.7698L9.95438 10.7655ZM9.92753 11.3686C10.0981 11.1981 10.3356 10.8967 10.4283 10.7875L8.90313 9.4937C8.70052 9.73254 8.60922 9.85848 8.51331 9.95439L9.92753 11.3686ZM10.4413 10.7718C10.6236 10.5478 10.773 10.299 10.885 10.0329L9.04171 9.25689C9.00343 9.34783 8.95238 9.43285 8.8901 9.50937L10.4413 10.7718ZM10.8642 10.0791C10.9761 9.84688 11.0282 9.59037 11.0158 9.33288L9.01811 9.42955C9.01445 9.35401 9.02974 9.27877 9.06257 9.21065L10.8642 10.0791ZM11.0158 9.33288C11.0033 9.0754 10.9267 8.82512 10.7929 8.6048L9.0835 9.64312C9.04424 9.5785 9.02176 9.50508 9.01811 9.42955L11.0158 9.33288ZM10.8326 8.67675C10.8332 8.67791 10.7986 8.5997 10.721 8.41408C10.6522 8.24958 10.5641 8.03643 10.4699 7.80731C10.2828 7.3526 10.0703 6.83266 9.94589 6.53312L8.09886 7.30023C8.22171 7.59602 8.42986 8.10531 8.62029 8.5682C8.79618 8.99578 8.98494 9.45356 9.04375 9.57117L10.8326 8.67675ZM9.94534 6.53179C9.78077 6.13716 9.52803 5.7496 9.09307 5.5441C8.88289 5.44481 8.69077 5.41837 8.55925 5.41067C8.49848 5.40712 8.44464 5.40744 8.42083 5.40752C8.3866 5.40763 8.39394 5.40736 8.40485 5.40793L8.30041 7.4052C8.35723 7.40817 8.41239 7.40756 8.42765 7.40751C8.45332 7.40742 8.45062 7.40774 8.44239 7.40726C8.41598 7.40571 8.33458 7.39773 8.23873 7.35245C8.14115 7.30634 8.08457 7.24834 8.06294 7.22149C8.04667 7.20129 8.06349 7.21541 8.09941 7.30156L9.94534 6.53179ZM8.40118 5.40774C8.20412 5.39816 7.98713 5.39576 7.7837 5.39576V7.39576C7.97636 7.39576 8.15546 7.39816 8.30408 7.40538L8.40118 5.40774ZM7.75583 5.39615C7.46725 5.4042 7.18346 5.47188 6.92231 5.59494L7.77483 7.40414C7.78634 7.39871 7.79885 7.39573 7.81158 7.39537L7.75583 5.39615ZM6.92231 5.59494C6.66116 5.71799 6.4283 5.89376 6.23838 6.11119L7.74468 7.4269C7.75305 7.41731 7.76331 7.40956 7.77483 7.40414L6.92231 5.59494ZM6.30393 6.04296C5.86705 6.45668 5.52114 6.95685 5.28821 7.51162L7.13227 8.28586C7.25768 7.98717 7.44392 7.71788 7.67913 7.49513L6.30393 6.04296ZM5.28821 7.51162C5.05529 8.0664 4.94047 8.6636 4.95106 9.26519L6.95075 9.22998C6.94505 8.90608 7.00687 8.58455 7.13227 8.28586L5.28821 7.51162ZM4.95458 9.33322C5.06763 10.6486 5.56238 11.9024 6.37805 12.9405L7.95069 11.7048C7.37569 10.973 7.02693 10.0892 6.94723 9.16195L4.95458 9.33322ZM6.33245 12.8776C7.70327 14.9327 9.58501 16.596 11.7929 17.7042L12.6901 15.9167C10.7922 14.9641 9.17463 13.5344 7.99629 11.7678L6.33245 12.8776ZM11.8468 17.7292C12.4322 17.9807 13.0302 18.2018 13.6384 18.3916L14.2341 16.4824C13.6917 16.3131 13.1583 16.1159 12.6362 15.8916L11.8468 17.7292ZM13.6457 18.3939C14.4014 18.6233 15.2002 18.6729 15.9784 18.5389L15.6389 16.5679C15.1678 16.6491 14.6842 16.619 14.2268 16.4801L13.6457 18.3939ZM16.0072 18.5335C16.5565 18.4222 17.0767 18.1982 17.535 17.8757L16.3839 16.2401C16.1518 16.4035 15.8883 16.517 15.6101 16.5733L16.0072 18.5335ZM17.535 17.8757C17.9933 17.5532 18.3797 17.1391 18.6699 16.6596L16.9587 15.6242C16.8118 15.867 16.6161 16.0768 16.3839 16.2401L17.535 17.8757ZM18.73 16.5438C19.0037 15.9201 19.0881 15.2297 18.9727 14.5584L17.0016 14.8975C17.0506 15.1824 17.0148 15.4753 16.8986 15.7399L18.73 16.5438ZM18.8497 14.2221C18.6656 13.9082 18.3832 13.75 18.2672 13.6865C18.1553 13.6252 17.9535 13.5307 17.8654 13.4867L16.971 15.2755C17.0534 15.3168 17.1317 15.3541 17.1874 15.381C17.2493 15.4109 17.2834 15.428 17.3065 15.4406C17.3304 15.4537 17.3155 15.4477 17.2855 15.4237C17.2529 15.3977 17.185 15.337 17.1246 15.2339L18.8497 14.2221ZM21.1163 2.77673C18.9043 0.565248 15.964 -0.767048 12.8428 -0.972115L12.7117 1.02358C15.3489 1.19685 17.8332 2.32255 19.7022 4.19112L21.1163 2.77673ZM12.8428 -0.972115C9.72168 -1.17718 6.63235 -0.241043 4.15001 1.66201L5.36684 3.24925C7.46426 1.64129 10.0745 0.850315 12.7117 1.02358L12.8428 -0.972115ZM4.15001 1.66201C1.66766 3.56507 -0.0385394 6.30536 -0.650942 9.37271L1.31035 9.76429C1.82779 7.17258 3.26942 4.85721 5.36684 3.24925L4.15001 1.66201ZM-0.650942 9.37271C-1.26334 12.4401 -0.740215 15.6254 0.821051 18.3358L2.55409 17.3375C1.23492 15.0474 0.792911 12.356 1.31035 9.76429L-0.650942 9.37271ZM0.723071 17.5726L-0.964499 23.7359L0.964499 24.2641L2.65207 18.1008L0.723071 17.5726ZM0.253524 24.9673L6.5597 23.3146L6.05266 21.3799L-0.253524 23.0327L0.253524 24.9673ZM5.82797 23.2255C7.71885 24.2551 9.83753 24.7946 11.9906 24.7948L11.9907 22.7948C10.1718 22.7946 8.38186 22.3388 6.78439 21.469L5.82797 23.2255ZM11.9906 24.7948H11.9954V22.7948H11.9906V24.7948ZM11.9959 24.7948C14.5463 24.7935 17.039 24.0363 19.1591 22.6189L18.0476 20.9562C16.2561 22.1539 14.1499 22.7937 11.9949 22.7948L11.9959 24.7948ZM19.1591 22.6189C21.2793 21.2015 22.9318 19.1875 23.9079 16.8314L22.0601 16.0659C21.2354 18.0568 19.8391 19.7586 18.0476 20.9562L19.1591 22.6189ZM23.9079 16.8314C24.8839 14.4752 25.1397 11.8826 24.6429 9.38117L22.6812 9.77075C23.101 11.8844 22.8849 14.0751 22.0601 16.0659L23.9079 16.8314ZM24.6429 9.38117C24.1461 6.8797 22.9191 4.5816 21.1168 2.77721L19.7018 4.19061C21.2246 5.71526 22.2615 7.65709 22.6812 9.77075L24.6429 9.38117ZM19.4093 3.48391V3.48393H21.4093V3.48391H19.4093ZM16.7179 19.4271C15.3024 20.3143 13.6657 20.7851 11.9952 20.7855L11.9957 22.7855C14.0418 22.785 16.0464 22.2084 17.7801 21.1217L16.7179 19.4271ZM11.9954 20.7855H11.9906V22.7855H11.9954V20.7855ZM11.9907 20.7855C10.3996 20.7854 8.83776 20.3573 7.46896 19.5461L6.44929 21.2667C8.12673 22.2608 10.0407 22.7854 11.9906 22.7855L11.9907 20.7855ZM7.46814 19.5457L7.10686 19.332L6.08883 21.0535L6.45011 21.2672L7.46814 19.5457ZM6.34408 19.2255L2.60166 20.2073L3.10919 22.1419L6.85161 21.16L6.34408 19.2255ZM3.81995 21.4386L4.81857 17.7898L2.88951 17.2618L1.8909 20.9106L3.81995 21.4386ZM4.70204 16.9958L4.46799 16.6213L2.77199 17.6813L3.00605 18.0558L4.70204 16.9958ZM4.4672 16.62C3.5335 15.1311 3.06229 13.3986 3.11317 11.6418L1.11401 11.5839C1.05168 13.7361 1.62894 15.8585 2.77278 17.6826L4.4672 16.62ZM3.11317 11.6418C3.16404 9.88504 3.73471 8.18278 4.75301 6.75031L3.12292 5.59152C1.87544 7.34639 1.17633 9.43176 1.11401 11.5839L3.11317 11.6418ZM4.75301 6.75031C5.77132 5.31785 7.19152 4.2195 8.83404 3.59416L8.12243 1.72504C6.11024 2.49112 4.37041 3.83666 3.12292 5.59152L4.75301 6.75031ZM8.83404 3.59416C10.4766 2.96883 12.2676 2.84458 13.9807 3.23715L14.4275 1.28768C12.3288 0.806762 10.1346 0.958966 8.12243 1.72504L8.83404 3.59416ZM13.9807 3.23715C15.6939 3.62971 17.2521 4.52145 18.4585 5.7996L19.9129 4.42684C18.4351 2.86102 16.5262 1.76859 14.4275 1.28768L13.9807 3.23715ZM18.4585 5.7996C19.6648 7.07775 20.465 8.68491 20.758 10.4179L22.73 10.0845C22.3711 7.96153 21.3908 5.99265 19.9129 4.42684L18.4585 5.7996ZM20.758 10.4179C21.0509 12.1508 20.8234 13.9317 20.1043 15.5353L21.9291 16.3537C22.8102 14.3892 23.0889 12.2074 22.73 10.0845L20.758 10.4179ZM20.1043 15.5353C19.3851 17.139 18.2065 18.4934 16.7176 19.4272L17.7803 21.1215C19.6043 19.9775 21.0481 18.3183 21.9291 16.3537L20.1043 15.5353Z" fill="#FFF1E2" mask="url(#path-1-inside-1_2328_80313)"/>
</g>
<defs>
<clipPath id="clip0_2328_80313">
<rect width="23.89" height="24" fill="white"/>
</clipPath>
</defs>
</svg>
