<svg width="24" height="24" viewBox="0 0 24 24" fill="none" xmlns="http://www.w3.org/2000/svg">
<g clip-path="url(#clip0_2327_80311)">
<path d="M17.4182 14.381C17.1217 14.2322 15.6598 13.512 15.3874 13.4136C15.1149 13.314 14.9169 13.2647 14.7188 13.5624C14.5208 13.8589 13.9507 14.5298 13.7766 14.7279C13.6038 14.9259 13.4297 14.9499 13.1333 14.8011C12.2572 14.4523 11.4485 13.9535 10.7436 13.3272C10.0934 12.7262 9.536 12.0321 9.08959 11.2675C8.91675 10.9698 9.07159 10.809 9.22042 10.6614C9.35365 10.5281 9.51808 10.3145 9.66572 10.1405C9.78799 9.99021 9.88822 9.8233 9.96338 9.64475C10.0029 9.5627 10.0213 9.47207 10.0169 9.38109C10.0125 9.29012 9.98546 9.20168 9.93818 9.12384C9.86376 8.97501 9.26963 7.51188 9.02238 6.91655C8.78112 6.33803 8.53627 6.41604 8.35263 6.40644C8.17979 6.39804 7.98175 6.39564 7.7837 6.39564C7.63305 6.39984 7.4849 6.43517 7.34857 6.49941C7.21224 6.56366 7.09068 6.65542 6.99153 6.76892C6.65549 7.08716 6.38941 7.47189 6.21024 7.89862C6.03108 8.32535 5.94276 8.78472 5.9509 9.24746C6.04728 10.3688 6.46903 11.4376 7.16437 12.3225C8.43895 14.2334 10.1886 15.78 12.2415 16.8103C12.7952 17.0482 13.3609 17.2573 13.9363 17.4369C14.5428 17.621 15.184 17.6609 15.8087 17.5533C16.2224 17.4695 16.6142 17.3007 16.9595 17.0578C17.3047 16.8148 17.5958 16.5029 17.8143 16.1418C18.0093 15.6976 18.0694 15.2059 17.9871 14.7279C17.9139 14.603 17.7159 14.5298 17.4182 14.381V14.381ZM20.4093 3.4838C18.3688 1.44378 15.6564 0.214779 12.7773 0.0256118C9.89811 -0.163555 7.04831 0.700002 4.75842 2.45551C2.46854 4.21102 0.894626 6.73885 0.329705 9.56838C-0.235216 12.3979 0.247353 15.3363 1.68757 17.8365L0 23.9999L6.30618 22.3471C8.05035 23.2968 10.0046 23.7945 11.9906 23.7946H11.9954C14.3481 23.7934 16.6475 23.095 18.6034 21.7874C20.5592 20.4799 22.0836 18.6221 22.984 16.4485C23.8844 14.275 24.1203 11.8834 23.6621 9.57584C23.2038 7.26827 22.0719 5.14831 20.4093 3.48379V3.4838ZM17.249 20.2743C15.6744 21.2612 13.8538 21.7849 11.9954 21.7854H11.9906C10.2201 21.7853 8.48224 21.309 6.95912 20.4063L6.59784 20.1926L2.85543 21.1745L3.85404 17.5257L3.61999 17.1512C2.58122 15.4946 2.05699 13.5673 2.11359 11.6128C2.17019 9.65828 2.80507 7.76446 3.93797 6.1708C5.07086 4.57713 6.65088 3.35519 8.47823 2.65948C10.3056 1.96377 12.2982 1.82555 14.2041 2.26229C16.11 2.69903 17.8436 3.69111 19.1857 5.1131C20.5278 6.53508 21.4181 8.3231 21.744 10.251C22.0699 12.179 21.8168 14.1603 21.0167 15.9444C20.2166 17.7285 18.9054 19.2353 17.249 20.2743" fill="#40372B"/>
</g>
<defs>
<clipPath id="clip0_2327_80311">
<rect width="23.89" height="24" fill="white"/>
</clipPath>
</defs>
</svg>
