<svg width="656" height="459" viewBox="0 0 656 459" fill="none" xmlns="http://www.w3.org/2000/svg">
<g clip-path="url(#clip0_1429_1226)">
<path d="M656 434.343H0V436.343H656V434.343Z" fill="#BB782A"/>
<path d="M471.971 210.814C465.898 174.396 434.243 146.645 396.107 146.645H240.149C202.028 146.645 170.381 174.374 164.285 210.77C163.582 214.932 163.219 219.213 163.219 223.575V359.461C163.219 363.824 163.582 368.097 164.285 372.26C169.137 401.256 190.215 424.756 217.871 433.103C224.922 435.237 232.402 436.385 240.15 436.385H396.107C403.854 436.385 411.335 435.237 418.385 433.103C446.049 424.749 467.135 401.234 471.971 372.215C472.667 368.068 473.03 363.809 473.03 359.461V223.575C473.03 219.228 472.667 214.962 471.971 210.814ZM409.305 433.104C405.017 433.866 400.61 434.266 396.107 434.266H240.149C235.646 434.266 231.24 433.866 226.951 433.104C191.934 426.875 165.344 396.271 165.344 359.461V314.356C165.344 186.906 268.657 148.77 396.107 148.77C437.42 148.77 470.912 182.262 470.912 223.575V359.461C370.621 372.882 444.323 426.875 409.305 433.104Z" fill="#BB782A"/>
<path d="M349.162 249.186L355.162 288.186L443.162 276.186L434.662 230.62L349.162 249.186Z" fill="#FFC37F"/>
<path d="M418.226 30.3422H381.842V68.0034H418.226V30.3422Z" fill="#261D1A"/>
<path d="M385.162 70.1865L394.162 43.1865H411.705L412.627 70.1865H385.162Z" fill="#FFB6B6"/>
<path opacity="0.1" d="M385.162 70.1865L394.162 43.1865H411.705L412.627 70.1865H385.162Z" fill="#4D2C06"/>
<path d="M394.662 310.686L393.662 414.686L392.662 422.686V434.171L407.662 435.686L408.662 412.686C408.662 412.686 424.662 367.686 420.662 332.686C416.662 297.686 418.662 307.686 418.662 307.686L394.662 310.686Z" fill="#FFB6B6"/>
<path d="M404.184 318.854L367.283 416.092L365.304 423.908L361.127 434.605L346.603 430.56L354.038 408.772C354.038 408.772 355.505 361.035 371.963 329.888C388.421 298.741 382.92 307.328 382.92 307.328L404.184 318.854Z" fill="#FFB6B6"/>
<path d="M385.162 67.1865L358.162 79.1865L375.402 168.199L372.678 295.954L354.678 333.954C354.678 333.954 351.662 355.686 382.662 341.686C413.662 327.686 448.662 323.686 448.662 323.686L440.162 265.186L432.662 111.686L433.662 77.6865L411.662 63.6865C411.662 63.6865 385.162 67.1865 385.162 67.1865Z" fill="#261D1A"/>
<path d="M370.124 335.343L340.162 285.186L374.402 168.199L358.162 79.1865L386.653 66.9896C386.653 66.9896 401.402 81.3521 401.402 93.1986C401.402 105.045 370.124 335.343 370.124 335.343Z" fill="#E6E6E6"/>
<path d="M435.125 325.343L407.928 91.7151C407.584 88.7651 408.088 85.7784 409.379 83.104L417.162 66.9896L447.662 75.6865L435.402 171.199L468.162 265.186L435.125 325.343Z" fill="#E6E6E6"/>
<path d="M410.662 433.686C410.662 433.686 391.662 422.686 389.662 428.686C387.662 434.686 386.662 439.686 386.662 439.686C386.662 439.686 381.662 458.686 396.662 458.686C411.662 458.686 410.662 450.045 410.662 450.045V433.686Z" fill="#261D1A"/>
<path d="M344.536 427.606C344.536 427.606 366.236 424.271 365.916 430.588C365.596 436.904 364.709 441.926 364.709 441.926C364.709 441.926 362.455 461.443 348.482 455.986C334.51 450.529 338.585 442.844 338.585 442.844L344.536 427.606Z" fill="#261D1A"/>
<path d="M404.103 57.8814C417.833 57.8814 428.963 46.7513 428.963 33.0215C428.963 19.2917 417.833 8.16156 404.103 8.16156C390.373 8.16156 379.243 19.2917 379.243 33.0215C379.243 46.7513 390.373 57.8814 404.103 57.8814Z" fill="#FFB6B6"/>
<path d="M423.965 10.8677C422.808 4.7383 416.516 0.592522 410.3 0.0726519C404.084 -0.447218 397.995 1.89991 392.397 4.65186C388.603 6.51734 384.867 8.61997 381.793 11.5237C378.72 14.4274 376.333 18.2206 375.781 22.4128C375.586 23.8961 375.611 25.4457 375.004 26.813C374.246 28.521 372.618 29.6809 371.635 31.2706C369.873 34.1215 370.682 38.2692 373.387 40.2481C369.987 41.6972 366.493 43.2088 363.901 45.8437C361.309 48.4787 359.813 52.5468 361.235 55.9584C361.738 57.1653 362.57 58.2218 363 59.4568C363.817 61.8018 363.039 64.4659 361.591 66.4826C360.142 68.4994 358.097 69.9949 356.089 71.4549C361.251 72.4667 366.52 73.255 371.759 72.783C376.998 72.311 382.256 70.4749 386.05 66.8312C389.843 63.1875 391.93 57.5669 390.569 52.4859C389.527 48.5935 386.61 45.1828 386.612 41.1533C386.614 38.0558 388.355 35.2617 390.037 32.6606C393.71 26.9799 397.383 21.2993 401.056 15.6186C401.717 14.5968 402.413 13.5394 403.457 12.9144C405.233 11.8511 407.537 12.3187 409.41 13.2012C411.282 14.0837 412.993 15.3499 414.989 15.897C419.063 17.0138 423.79 14.4492 425.075 10.4244" fill="#261D1A"/>
<path d="M409.28 61.4252C407.208 63.4313 404.223 64.0775 401.456 64.8904C398.689 65.7033 395.746 66.9818 394.501 69.5828C393.28 72.1333 394.166 75.3708 396.188 77.3479C398.209 79.325 401.146 80.1579 403.973 80.1187C406.801 80.0794 409.556 79.2507 412.215 78.2886C419.486 75.6577 426.372 71.9671 432.588 67.3696C428.561 66.2554 425.927 61.5534 427.08 57.5375C428.017 54.2707 430.885 51.9922 432.836 49.2094C436.196 44.4179 436.755 38.1019 435.643 32.3566C434.53 26.6114 431.911 21.2857 429.319 16.039C428.5 14.3805 427.661 12.6939 426.383 11.3566C425.105 10.0193 423.295 9.06121 421.455 9.25281C418.402 9.57076 416.452 12.9227 416.431 15.9925C416.411 19.0623 417.757 21.9474 418.779 24.8424C419.831 27.825 420.563 30.9865 420.28 34.1366C420.044 36.7765 419.084 39.348 417.532 41.4969C416.334 43.1565 414.807 44.5492 413.505 46.1279C412.497 47.3484 411.605 48.731 411.34 50.2911C410.858 53.1302 412.523 56.003 412.067 58.8463C411.584 61.8519 408.422 64.153 405.413 63.6871" fill="#261D1A"/>
<path d="M333.249 408.645C380.193 408.645 418.249 370.589 418.249 323.645C418.249 276.7 380.193 238.645 333.249 238.645C286.305 238.645 248.249 276.7 248.249 323.645C248.249 370.589 286.305 408.645 333.249 408.645Z" fill="#FFC37F"/>
<path d="M384.179 316.823H373.612C371.968 307.136 366.895 298.363 359.32 292.106C341.885 277.706 316.079 280.165 301.679 297.6C301.63 297.655 301.582 297.713 301.537 297.771C300.386 299.263 300.663 301.405 302.154 302.555C303.645 303.706 305.787 303.43 306.938 301.938C313.194 294.359 322.662 289.537 333.249 289.537C349.457 289.539 363.428 300.943 366.675 316.823H357.356C356.958 316.823 356.572 316.963 356.266 317.218C355.542 317.821 355.444 318.896 356.047 319.62L369.458 335.719C369.524 335.798 369.596 335.87 369.675 335.936C370.399 336.539 371.474 336.442 372.077 335.719L385.488 319.62C385.743 319.314 385.883 318.928 385.884 318.529C385.884 317.587 385.121 316.823 384.179 316.823Z" fill="white"/>
<path d="M364.344 344.734C362.852 343.583 360.71 343.859 359.56 345.351C354.598 351.359 347.729 355.487 340.095 357.05C321.634 360.83 303.603 348.928 299.823 330.466H309.141C310.083 330.466 310.847 329.702 310.846 328.76C310.846 328.361 310.706 327.975 310.451 327.669L297.04 311.57C296.437 310.847 295.361 310.75 294.638 311.353C294.559 311.419 294.486 311.491 294.42 311.57L281.009 327.669C280.407 328.393 280.505 329.468 281.228 330.071C281.535 330.326 281.92 330.466 282.319 330.466H292.886C294.53 340.153 299.602 348.926 307.178 355.183C324.612 369.583 350.419 367.124 364.819 349.689C364.868 349.634 364.915 349.576 364.96 349.518C366.111 348.026 365.835 345.884 364.344 344.734Z" fill="white"/>
<path d="M356.982 237.194C355.952 244.56 351.317 250 346.629 249.344C341.942 248.688 338.977 242.185 340.008 234.817C340.379 231.868 341.451 229.05 343.135 226.6L347.891 195.445L362.464 197.988L356.228 228.432C357.175 231.251 357.434 234.255 356.982 237.194Z" fill="#FFB6B6"/>
<path d="M369.662 77.6865C369.662 77.6865 354.662 72.6865 352.662 90.6865C350.662 108.686 348.662 130.686 348.662 130.686C348.662 130.686 339.662 151.686 343.662 162.686C347.662 173.686 354.662 166.017 347.662 175.352C340.662 184.686 341.637 215.399 341.637 215.399L364.162 214.265C364.162 214.265 376.662 131.686 376.662 129.686C376.662 127.686 369.662 77.6865 369.662 77.6865Z" fill="#E6E6E6"/>
<path d="M467.161 233.85C467.44 241.283 463.831 247.451 459.101 247.628C454.371 247.804 450.312 241.923 450.034 234.488C449.882 231.519 450.443 228.557 451.671 225.85L450.887 194.343L465.68 194.291L464.882 225.356C466.309 227.965 467.091 230.877 467.161 233.85Z" fill="#FFB6B6"/>
<path d="M444.07 77.3487C444.07 77.3487 459.157 72.6175 460.835 90.6504C462.513 108.683 464.119 141.715 464.119 141.715C464.119 141.715 472.743 162.873 468.547 173.8C464.351 184.726 457.489 176.933 464.321 186.392C471.153 195.85 468.701 222.523 468.701 222.523L446.2 220.987C446.2 220.987 436.106 142.215 436.142 140.215C436.177 138.216 444.07 77.3487 444.07 77.3487Z" fill="#E6E6E6"/>
</g>
<defs>
<clipPath id="clip0_1429_1226">
<rect width="656" height="458.686" fill="white"/>
</clipPath>
</defs>
</svg>
